<svg width="64" height="64" xmlns="http://www.w3.org/2000/svg">
 <title/>

 <g>
  <title>background</title>
  <rect fill="none" id="canvas_background" height="402" width="582" y="-1" x="-1"/>
 </g>
 <g>
  <title>Layer 1</title>
  <path id="9e898d54-839b-4d53-a8f2-5fc999c8b741" fill="#e37cff" d="m62,32.58a9.84,9.84 0 0 0 -2.94,-7a1.58,1.58 0 0 1 -0.38,-1.65a6.9,6.9 0 0 0 -4.61,-8.82a6.92,6.92 0 0 0 -6.88,-6.21c-0.07,0 -0.13,-0.2 -0.2,-0.2a8.7,8.7 0 0 0 -6.85,-3.7l-1.34,0a4.2,4.2 0 0 0 -0.72,0.06a4.82,4.82 0 0 0 -4.08,4.74l0,44.4a4.83,4.83 0 0 0 4.25,4.8a4.93,4.93 0 0 0 0.55,0l1.91,0a7.48,7.48 0 0 0 3,-0.74l0.27,-0.12l0.16,0a6.46,6.46 0 0 0 7.48,-3.91l0.4,0a6.51,6.51 0 0 0 6.22,-3.23a6.39,6.39 0 0 0 0.4,-5.31a4.9,4.9 0 0 0 1.36,-7.18a9.84,9.84 0 0 0 2,-5.93z"/>
  <path id="4a3f2640-63ac-4201-90da-64d3f90b944c" fill="#ff001a" d="m59,32.58a9.84,9.84 0 0 0 -2.94,-7a1.58,1.58 0 0 1 -0.38,-1.65a6.9,6.9 0 0 0 -4.61,-8.82a6.92,6.92 0 0 0 -6.88,-6.21c-0.07,0 -0.13,-0.2 -0.2,-0.2a8.87,8.87 0 0 0 -5.91,-3.62a4.82,4.82 0 0 0 -4.08,4.72l0,44.4a4.82,4.82 0 0 0 4,4.73l0.25,0a8.4,8.4 0 0 0 2.75,-0.79a6.27,6.27 0 0 0 1.69,0.21a5.92,5.92 0 0 0 1,-0.09a2.31,2.31 0 0 1 0.43,-0.08a6.46,6.46 0 0 0 6.88,-4.18c3.46,0 3.78,-0.78 5,-3c1,-1.84 0.22,-3.73 -0.36,-5.31a4.9,4.9 0 0 0 1.36,-7.18a9.84,9.84 0 0 0 2,-5.93z"/>
  <path id="17556f29-ba33-4b3d-bb82-ccd6359b7504" fill="#b40e0e" d="m36,39l0,19c-1.21,-0.21 -0.28,0.06 -1,-0.88l0,-18.12l1,0z"/>
  <polygon points="43 22 42.21 22.89 39.62 24.19 36 25 34 25 34 22 43 22" id="b6f0ada1-4d19-414d-99e0-06358e3e1e0e" fill="#b40e0e"/>
  <path id="d7cae277-ff7f-495d-9960-c37974e21bbb" fill="#b0b2ff" d="m26.15,5a2.28,2.28 0 0 0 -0.45,0l-1.34,0a8.7,8.7 0 0 0 -6.85,3.68c-0.07,0 -0.13,0.1 -0.2,0.1a7,7 0 0 0 -6.88,6.22a6.95,6.95 0 0 0 -4.21,9.82a9.85,9.85 0 0 0 -1.73,13.68a4.9,4.9 0 0 0 1.37,7.16a6.57,6.57 0 0 0 -0.4,2.22a6.43,6.43 0 0 0 6.42,6.42a6.11,6.11 0 0 0 1,-0.08a6.41,6.41 0 0 0 6,4a7.13,7.13 0 0 0 1.54,-0.08l0.15,0l0.16,0.07a7.67,7.67 0 0 0 3.15,0.79l2.12,0a4.5,4.5 0 0 0 4,-4.2l0,-45.42a4.69,4.69 0 0 0 -3.85,-4.38z"/>
  <path id="a6bca92c-fe38-4263-8ff6-b60abb861346" fill="#328df0" d="m26.15,5a8.81,8.81 0 0 0 -6.15,3.68c-0.07,0 -0.13,0.1 -0.2,0.1a7,7 0 0 0 -6.87,6.22a6.95,6.95 0 0 0 -4.21,9.82a9.85,9.85 0 0 0 -1.72,13.68a4.9,4.9 0 0 0 1.37,7.16a6.57,6.57 0 0 0 -0.37,2.22c0,3.54 1.46,6.12 5,6.12c0.33,0 0.68,1.05 1,1c0.83,2.07 4,2.84 6.33,3.17a1.54,1.54 0 0 0 0.31,0a4.64,4.64 0 0 0 0.65,0a6.28,6.28 0 0 0 1.71,-0.03a8.24,8.24 0 0 0 3,0.86a4.5,4.5 0 0 0 4,-4.2l0,-45.42a4.69,4.69 0 0 0 -3.85,-4.38z"/>
  <path id="fc7e8c38-1e7f-4a9b-98d1-40cc90559ac2" fill="#328df0" d="m26.15,5a8.81,8.81 0 0 0 -6.15,3.69c-0.07,0 -0.13,0.1 -0.2,0.1a7,7 0 0 0 -6.87,6.21a6.95,6.95 0 0 0 -4.21,9.82a9.85,9.85 0 0 0 -1.72,13.69a4.9,4.9 0 0 0 1.37,7.16a6.57,6.57 0 0 0 -0.37,2.22c0,3.54 1.46,6.11 5,6.11c0.33,0 0.68,1.05 1,1c0.83,2.07 4,2.84 6.33,3.17a1.54,1.54 0 0 0 0.31,0a4.64,4.64 0 0 0 0.65,0a6.28,6.28 0 0 0 1.71,-0.02a8.24,8.24 0 0 0 3,0.85a4.5,4.5 0 0 0 4,-4.2l0,-45.41a4.69,4.69 0 0 0 -3.85,-4.39z"/>
  <path id="6e4a43b2-a52f-44ad-85d8-7e3e890cd057" fill="#166bb7" d="m28,39l0,19c1,-0.21 0.28,0.06 1,-0.88l0,-18.12l-1,0z"/>
  <polygon points="21 22 21.79 22.89 24.38 24.19 28 25 30 25 30 22 21 22" id="4799e974-efea-4dd9-9dcc-c3032ded0542" fill="#166bb7"/>
  <path stroke-width="2" stroke-linejoin="round" stroke-linecap="round" stroke="#001c63" id="9feab291-f62c-434f-9c48-8770263d009a" fill="#4caf50" d="m25.7,5l-1.34,0a8.71,8.71 0 0 0 -6.85,3.68c-0.07,0 -0.13,0.1 -0.2,0.1a7,7 0 0 0 -6.88,6.22a6.94,6.94 0 0 0 -4.21,9.81a9.85,9.85 0 0 0 -1.73,13.69a4.89,4.89 0 0 0 1.37,7.16a6.38,6.38 0 0 0 7,8.55a6.42,6.42 0 0 0 6,4a6.41,6.41 0 0 0 1.69,-0.1a8,8 0 0 0 3.31,0.86l1.84,0a4.49,4.49 0 0 0 4.3,-4.18l0,-45.41a4.65,4.65 0 0 0 -4.3,-4.38z"/>
  <path stroke-width="2" stroke-linejoin="round" stroke-linecap="round" stroke="#001c63" id="b9e61c7c-dea0-493c-8af2-ade1128e7395" fill="none" d="m2.5,32.58a8.89,8.89 0 0 1 17.77,0"/>
  <path stroke-width="2" stroke-linejoin="round" stroke-linecap="round" stroke="#001c63" id="de3cf1b2-5416-4811-b966-f5e709a4ad7d" fill="none" d="m6.45,33.56a6.41,6.41 0 0 1 2.47,-5.06"/>
  <path stroke-width="2" stroke-linejoin="round" stroke-linecap="round" stroke="#001c63" id="892c9aed-efd3-4740-b524-d1b8bbee67c2" fill="none" d="m10.89,13a6.67,6.67 0 0 1 12.84,2.52"/>
  <path stroke-width="2" stroke-linejoin="round" stroke-linecap="round" stroke="#001c63" id="c606371a-b537-4a2d-82bc-4571b7a61d50" fill="none" d="m8.64,42a3.36,3.36 0 0 1 3.68,5.48"/>
  <path stroke-width="2" stroke-linejoin="round" stroke-linecap="round" stroke="#001c63" id="64803dfd-d116-47f3-801a-7992bf1edaf4" fill="none" d="m14.29,18a2.66,2.66 0 0 1 3.71,0"/>
  <path stroke-width="2" stroke-linejoin="round" stroke-linecap="round" stroke="#001c63" id="e92949b2-275c-4f78-9b45-a1892a2ccfee" fill="none" d="m15.28,50.6a2.66,2.66 0 0 1 3.75,0"/>
  <path stroke-width="2" stroke-linejoin="round" stroke-linecap="round" stroke="#001c63" id="4c8758c4-1e49-4017-9c15-76f7dfc3ef85" fill="none" d="m29.65,39l-11,0a6.78,6.78 0 0 1 -6.78,-6.78l0,-2.11"/>
  <path stroke-width="2" stroke-linejoin="round" stroke-linecap="round" stroke="#001c63" id="e42323da-1b0b-447b-a924-2e6a02fb02b6" fill="none" d="m29.65,24.19l-4.89,0a3,3 0 0 1 -3,-3l0,-0.94"/>
  <path stroke-width="2" stroke-linejoin="round" stroke-linecap="round" stroke="#001c63" id="6bce9005-34bd-4420-b48b-62cd267c2e52" fill="none" d="m29.65,44.92l-4.89,0a3,3 0 0 0 -3,3l0,0.94"/>
  <path id="e9dd444a-27e3-49f3-9130-cfd9a3508c23" fill="#4caf50" d="m23.71,56.78a3,3 0 1 1 0,-5.95a1,1 0 1 1 0,2a1,1 0 1 0 0,1.95a1,1 0 1 1 0,2z"/>
  <path stroke-width="2" stroke-linejoin="round" stroke-linecap="round" stroke="#001c63" id="b2277762-9736-42ce-b897-bf07ee1a7eef" fill="none" d="m24.71,55.78a2,2 0 1 1 0,-3.95"/>
  <line y2="33" y1="33" x2="30" x1="26" stroke-width="2" stroke-linejoin="round" stroke-linecap="round" stroke="#001c63" id="3abf062d-2916-4292-8e63-4d4734ca1a48" fill="none"/>
  <path stroke-width="2" stroke-linejoin="round" stroke-linecap="round" stroke="#001c63" id="854ca944-9eca-4b56-9338-5fe9ef2fa8ff" fill="#ffa726" d="m34,9.8l0,44.4a4.81,4.81 0 0 0 4.8,4.8l1.91,0a8,8 0 0 0 3.29,-0.86a6.4,6.4 0 0 0 1.69,0.21a6.46,6.46 0 0 0 6,-4.08l0.4,0a6.5,6.5 0 0 0 6.15,-3.27a6.34,6.34 0 0 0 0.4,-5.3a4.89,4.89 0 0 0 1.36,-7.19a9.84,9.84 0 0 0 -0.78,-12.78a2.07,2.07 0 0 1 -0.48,-2.06a6.9,6.9 0 0 0 -3.87,-8.29a1.67,1.67 0 0 1 -1,-1.16a6.91,6.91 0 0 0 -6.73,-5.35c-0.07,0 -0.13,-0.21 -0.2,-0.2a8.71,8.71 0 0 0 -6.8,-3.67l-1.34,0a4.81,4.81 0 0 0 -4.8,4.8z"/>
  <path stroke-width="2" stroke-linejoin="round" stroke-linecap="round" stroke="#001c63" id="185b92e6-dc85-43fc-8419-46358abe1a94" fill="none" d="m62,32.58a8.89,8.89 0 0 0 -17.77,0"/>
  <path stroke-width="2" stroke-linejoin="round" stroke-linecap="round" stroke="#001c63" id="332c148e-965d-42d0-b6ae-1efca39e9687" fill="none" d="m58.05,33.56a6.41,6.41 0 0 0 -2.47,-5.06"/>
  <path stroke-width="2" stroke-linejoin="round" stroke-linecap="round" stroke="#001c63" id="360a987b-d220-41bd-afab-6fc6de68818f" fill="none" d="m53.61,13a6.67,6.67 0 0 0 -12.84,2.52"/>
  <path stroke-width="2" stroke-linejoin="round" stroke-linecap="round" stroke="#001c63" id="43db05ce-bbf7-4e08-a8ff-95571beae4c5" fill="none" d="m55.86,42a3.36,3.36 0 0 0 -3.68,5.48"/>
  <path stroke-width="2" stroke-linejoin="round" stroke-linecap="round" stroke="#001c63" id="0bb056a8-1c08-4dfc-b303-1d4b24b31781" fill="none" d="m50.21,18a2.66,2.66 0 0 0 -3.75,0"/>
  <path stroke-width="2" stroke-linejoin="round" stroke-linecap="round" stroke="#001c63" id="d07bb196-1c98-4286-b0a4-5e464016f163" fill="none" d="m49.22,50.6a2.66,2.66 0 0 0 -3.75,0"/>
  <path stroke-width="2" stroke-linejoin="round" stroke-linecap="round" stroke="#001c63" id="8151b944-acfa-4f82-9152-52ad11571f6b" fill="none" d="m34.85,39l11,0a6.78,6.78 0 0 0 6.78,-6.78l0,-2.11"/>
  <path stroke-width="2" stroke-linejoin="round" stroke-linecap="round" stroke="#001c63" id="20f8e72e-d52b-4b23-9ba0-91598d596cd2" fill="none" d="m42.75,20.24l0,0.94a3,3 0 0 1 -3,3l-4.9,0"/>
  <path stroke-width="2" stroke-linejoin="round" stroke-linecap="round" stroke="#001c63" id="c2b49dbe-59f1-4595-b0a1-cec581f2121c" fill="none" d="m34.85,44.92l4.89,0a3,3 0 0 1 3,3l0,0.94"/>
  <path id="911aaf65-6397-40d7-9699-170eb7bbcecf" fill="#ffa726" d="m40.79,56.78a1,1 0 0 1 0,-2a1,1 0 1 0 0,-1.95a1,1 0 0 1 0,-2a3,3 0 1 1 0,5.95z"/>
  <path stroke-width="2" stroke-linejoin="round" stroke-linecap="round" stroke="#001c63" id="6e52c3fc-beba-4535-88ab-c13d8152c55a" fill="none" d="m39.79,55.78a2,2 0 0 0 0,-3.95"/>
  <line y2="33" y1="33" x2="34" x1="38" stroke-width="2" stroke-linejoin="round" stroke-linecap="round" stroke="#001c63" id="6011342b-cd8c-4e2c-986d-dd53ad20c28b" fill="none"/>
 </g>
</svg>